<?xml version='1.0' encoding='utf-8'?>
<svg xmlns="http://www.w3.org/2000/svg" viewBox="0 0 161.01 162.85">
 <defs>
  <linearGradient id="e" x1=".58422" x2="1.3577" y1=".28592" y2=".048621">
   <stop stop-color="#231949" stop-opacity=".339" offset="0"/>
   <stop stop-opacity="0" offset="1"/>
  </linearGradient>
  <linearGradient id="f" x1=".079984" x2=".71816" y1=".24945" y2=".39702">
   <stop stop-color="#fefbfe" stop-opacity=".247" offset="0"/>
   <stop stop-color="#d9f0e8" stop-opacity=".122" offset=".5"/>
   <stop stop-color="#ccc" stop-opacity="0" offset="1"/>
  </linearGradient>
  <linearGradient id="d" x1=".7578" x2="-.96824" y1=".2594" y2="1.548">
   <stop stop-color="#d72906" offset="0"/>
   <stop stop-color="#684342" stop-opacity=".498" offset="1"/>
   <stop stop-opacity="0" offset="1"/>
  </linearGradient>
 </defs>
 <g fill="#fafafa" fill-rule="evenodd" stroke="url(#e)">
  <path d="m28.25 24.824c-3.8934 51.784 17.226 93.161 55.441 118.23 0.8593 0.74806 1.2327 0.56816 2.1236-0.074585 38.14-25.074 59.217-66.423 55.328-118.15-43.318-11.276-73.463-11.135-112.89 0h-1e-5z" stroke-width=".931"/>
  <path d="m28.693 25.139c-3.8808 51.784 17.17 93.162 55.262 118.23 0.85651 0.74806 1.2287 0.56816 2.1167-0.0746 38.017-25.075 59.026-66.423 55.149-118.15-43.178-11.276-73.225-11.135-112.53 0h1e-5z" stroke-width=".929"/>
 </g>
 <g fill-rule="evenodd" stroke="#999">
  <path d="m27.124 23.312c-3.9327 52.58 17.4 94.594 56.002 120.05 0.868 0.759 1.2452 0.577 2.1451-0.076004 38.526-25.46 59.816-67.444 55.887-119.97-43.756-11.449-74.205-11.306-114.03 0z" stroke-width=".928"/>
  <path d="m132.53 29.776c3.337 45.883-14.766 82.545-47.521 104.76-0.7366 0.66299-1.0566 0.504-1.8203-0.06601-32.692-22.217-50.757-58.854-47.424-104.69 35.537-9.719 62.968-9.8662 96.765 0z" stroke-width=".798"/>
 </g>
 <g opacity=".5">
  <path d="m84.909 131.38c4.9291-26.77 7.7413-72.248-0.56435-106.91 19.519 1.2472 37.878 3.0386 43.576 6.8768-1.8006 45.438-29.915 93.958-43.011 100.03z" fill="url(#f)" fill-rule="evenodd"/>
 </g>
</svg>